<?xml version="1.0" encoding="UTF-8"?>
<svg version="1.1" viewBox="0 0 2000 2000" width="1280" height="1280" xmlns="http://www.w3.org/2000/svg">
<path transform="translate(0)" d="m0 0h2e3v2e3h-2e3z"/>
<path transform="translate(2e3 599)" d="m0 0h1v801l-6-1-5-5-1-4-1-66-4 4-9 12-11 12-2 1h-6l-6-4-2-4 1-7 8-11 14-17 7-9 10-12 1-3v-57l-13 15-10 13-13 16-8 10-6 5-9-1-5-5v-8l6-9 11-13 11-14 13-16 8-10 11-14 3-3 1-4v-56l-8 9-7 9-11 14-13 16-8 10-13 16-8 10-6 4h-6l-6-5-2-5 3-16 7-67 3-28-38 38h-2l-3 20-4 37-4 38-2 9-4 5-2 1h-7l-6-5-1-2v-14l6-55v-5l-41 41-5 42-2 19-4 7-5 2-7-1-5-6-1-5 3-29 1-3-5 3-12 13h-2l-2 4-25 25-6 4-4 1-6-3-4-5-1-5 6-8 10-10 3-4h2l2-4 8-8h2v-2l8-7 9-9-18 1-9 1h-13l-4-4-2-8 4-7 4-2 52-6 13-2 7-7 7-8h2v-2l8-7 16-16-13 1-60 6-6-2-3-3-1-3v-7l4-5 5-2 93-10 8-2 7-8h2l2-4 4-4h2v-2l8-7 13-13 1-2-72 8-28 3h-13l-5-5-2-7 3-5 16-12 11-9 16-13 10-8 11-9 16-13 8-7-59 1-14 11-13 11-10 8-14 11-12 10-13 10-6 3-5-1-5-4-2-5 1-6 6-7 14-11 17-14 13-10 7-6v-1l-59 1-14 11-13 11-13 10-11 8-8-1-5-6-1-6 4-6 10-9 14-11 1-2h-70l-5-4-2-5v-5l5-6 2-1h69l-5-5-15-13-6-5-4-7 1-5 5-5 6-2 7 3 16 13 10 8 17 14 4 3h58l-13-11-10-8-16-13-11-9-8-8v-9l5-5 2-1h6l9 6 16 13 14 11 11 9 16 13 10 8 6 4 57 1v-2l-4-2-13-11-14-11-17-14-16-13-14-11-8-8-2-6 3-6 4-4h7l17 3 85 9h5l-9-10-30-30-2-1-93-10-9-2-4-5-1-7 4-6 2-2h11l59 6h5l-7-8-32-32-9-2-48-5-9-2-5-6v-7l4-6 1-1h16l19 2 4 1-7-8-39-39-4-6v-6l5-6 4-2 5 1 9 7 41 41v-11l-2-25 3-6 3-2h9l4 2 2 3 3 22 4 39 2 6 39 39-2-23-4-38v-16l4-4 2-1h9l5 5 2 8 10 95 40 40-1-17-7-65-2-20v-10l5-5 3-2 7 1 5 5 7 10 14 17 11 14 14 17 9 11 11 14 1 1v-58l-12-16-12-14-7-9-9-11-8-10-9-11-7-11 1-5 3-5 6-3 6 2 8 7 11 14 11 13 9 11 8 10 1 1v-58l-8-11-11-13-11-14-9-12-1-7 6-7 2-1h6l6 4 9 11 11 13 1-69 4-5z" fill="#fff"/>
<path transform="translate(0,600)" d="m0 0 5 1 5 5 1 2 1 67 9-10 10-13 6-5 6-1 6 4 3 4v6l-8 11-11 14-13 16-8 10-1 2-1 55-1 3 6-5 8-10 13-16 14-18 7-8 6-3 6 1 5 5 2 6-4 7-11 14-9 11-11 14-14 17-11 14-5 6v58l12-14 11-14 13-16 11-14 13-16 9-11 6-3 9 3 3 4v7l-2 10-7 66-3 27-1 5 8-7 33-33 1-2 10-93 2-9 4-4 2-1h6l8 5v17l-6 56v4l40-40 2-8 6-56 6-7 7-1 6 3 3 5-1 17-2 18-1 2 8-7 41-41 5-3 5 1 5 3 2 3v8l-9 11-39 39 17-1 21-1 5 4 2 4-1 7-5 5-7 2-55 6-5 2-26 26h-2l-2 4-9 9 23-2 38-4h16l5 5 1 8-3 5-7 3-98 11-8 7-34 34 103-11h11l5 6 1 2v7l-6 5-11 8-11 9-16 13-14 11-17 14-14 11-1 1h59l11-9 16-13 14-11 13-11 14-11 11-8h7l6 4 2 8-4 7-11 9-16 13-14 11-11 9-3 2h59l9-6 15-13 14-11 12-9h9l5 4 2 5-1 5-7 8-20 16-1 1 69 1 4 2 3 5v7l-4 6-4 2-68 1 9 8 14 11 6 7v7l-3 5-3 2h-7l-6-3-11-9-17-14-10-8-8-6h-58l14 12 13 10 17 14 11 9 3 4 1 5-3 6-5 4-8-1-12-9-16-13-14-11-17-14-11-9-9-7h-58l8 7 13 10 17 14 10 8 16 13 14 11 5 4 4 6v6l-5 7-7 1-7-2-102-11 11 12 28 28 5 2 86 9 12 2 5 4 1 9-5 7-6 1-60-6-11-2 7 8 34 34 2 1 56 6 8 2 4 4 1 8-4 6-3 2-21-1-7-1h-9l48 48 1 2v8l-5 5-5 3-9-5-31-31-2-1v-2l-4-2-6-7-3-1 3 25v13l-7 6h-7l-6-5-2-8-6-57-7-8-33-33-2-1 2 10 6 56v9l-4 6-4 2h-6l-5-3-2-4-3-24-6-54-2-21-3-5-22-22-3-2v-2l-4-2-6-7-3-2 9 87 2 15v9l-5 6-7 2-5-2-7-10-10-13-14-17-9-11-11-14-11-13-8-10h-1l1 58 11 14 26 32 11 14 12 15 3 5v6l-4 6-3 2h-6l-6-4-9-10-10-13-14-17-9-11-4-3 1 2 1 57 10 13 14 17 11 14 4 6v8l-5 5-3 2-7-1-9-9-9-11-6-7-1 68-3 5-5 3h-2z" fill="#fff"/>
<path transform="translate(952)" d="m0 0h86l5 4 29 17 19 11 21 12 5 1 88-25 13-3 8 1 7 4 5 6 1 3v11l-6 9-8 4-32 9-29 8h-3l3 3 23 13 26 15 8-1 48-15 21-6h10l8 4 6 9v11l-5 8-5 4-10 4-29 8h-3l5 5 24 13 15 9 24 14 9 7 3 6 1 8-4 9-5 6-8 4h-7l-10-4-17-10-30-18-21-12 7 30 2 8v12l-5 8-5 4-5 2-10-1-6-4-5-6-4-13-11-50-4-16-9-7-18-10-17-10-10-5 4 13 13 52v10l-6 9-5 3-5 1h-7l-7-3-6-7-5-15-22-87-2-4-26-15-28-16-23-13-1 65v25l9 10 26 26 8 7 33 33 4 7v9l-5 9-5 4-6 2-10-1-8-6-15-14-29-29-2-1v60l3 5 10 9 4 3v2l4 2 11 11 8 7 9 9 7 6 6 9 1 6-3 9-5 6-7 3h-10l-7-4-10-9-8-7-11-10-2-1v83l-2 7-7 8-12 3-8-2-6-4-4-5-2-8v-83l-7 7-8 7-13 12-8 5-3 1h-9l-8-4-4-5-2-4v-11l5-8 10-10 5-4 15-15 8-7 11-10 7-6 1-2 1-41 1-22-8 7-40 40-8 5-10 1-10-5-5-8-1-8 3-8 9-10 24-24 8-7 35-35 1-2 1-90-16 8-25 14-23 13-15 9-4 13-14 54-8 31-4 10-5 5-3 2-10 1-9-3-6-7-2-6 1-11 13-50 3-12-26 15-25 15h-2l-4 16-12 52-5 16-5 5-7 3-5 1-9-3-5-5-3-4-1-4v-9l8-35v-4l-29 17-15 9-21 12-12 5-5 1-8-3-7-7-3-7v-9l3-7 5-5 22-13 46-26 4-4-7-1-29-9-10-5-5-8-1-3v-7l3-7 4-5 5-3h12l31 9 42 13 6-1 22-13 25-14 2-2-9-3-48-13-12-5-6-7-2-5v-7l3-8 7-6 4-2h9l37 10 52 15 11 3 5-1 27-16 45-26h2z" fill="#fff"/>
<path transform="translate(990,1601)" d="m0 0h10l8 4 5 6 2 5v87l8-7 9-9h2l2-4 8-7 10-6h9l8 4 5 6 2 5v7l-4 8-9 10-8 7-10 10-8 7-16 15-6 5-2 10-1 52-1 3 6-4 44-44 7-4h11l8 4 5 8 1 3v9l-6 9-36 36-8 7-29 29-1 3v89l28-16 23-13 26-15 3-4 18-71 7-26 5-10 7-5 3-1h8l8 4 6 7 1 3v11l-9 36-8 28 12-6 13-8 22-13 5-3h2l4-18 13-56 4-10 5-5 6-3h9l8 4 5 6 1 3v14l-7 30-2 7 14-8 28-17 26-15 9-4h9l6 3 5 5 5 10v7l-3 6-4 5-15 9-26 15-27 15-5 4 31 10 12 5 5 4 3 6v12l-6 8-6 4-9 1-21-6-52-16h-8l-23 13-22 13-5 2-1 2 10 2 43 12 16 6 7 6 2 5v10l-4 8-5 4-5 2h-9l-23-6-74-21h-7l-24 14-25 15-21 12-5 4h-84l-10-7-16-9-27-16-23-13-4-1-21 6-65 18-16 4-9-1-6-4-4-5-2-5v-8l4-8 6-5 21-7 45-12v-2l-27-16-23-13-8 1-54 17-19 5-9-2-6-4-4-6-1-4v-7l5-10 8-5 31-10 8-1-4-4-25-14-17-10-21-12-9-7-4-8v-8l3-7 7-8 8-3 7 1 16 8 27 16 26 15 6 4-2-12-5-24v-16l4-6 6-4 3-1h9l8 4 6 8 5 19 13 58 9 7 25 14 18 11 2 1-11-42-5-21v-14l6-8 8-4h8l7 3 5 5 5 12 20 79 5 16 4 4 11 6 27 15 24 14 11 6 2 1-1-91-9-10-30-30-8-7-28-28-4-7v-11l4-7 6-5 3-1h11l10 6 45 45 2 1-1-50-1-12-11-12-13-12-16-15-9-9-8-7-5-9v-9l4-7 7-6 3-1h9l10 5 11 11 16 14v2h2l1-87 4-7 6-5z" fill="#fff"/>
<path transform="translate(1902,1010)" d="m0 0h71l-3 5-47 47-10 2-78 8h-9l5-5 13-10 16-13 14-11 17-14 10-8z"/>
<path transform="translate(1826,928)" d="m0 0 13 1 84 9 10 9 39 39 1 3h-73l-10-8-16-13-14-11-13-11-13-10-8-6z"/>
<path transform="translate(166,927)" d="m0 0h6l-1 3-13 10-11 9-16 13-11 9-14 11-9 7h-71l6-7 45-45 12-2z"/>
<path transform="translate(26,1010)" d="m0 0h73l9 7 16 13 14 11 17 14 13 11 5 5-12-1-76-8-8-1-10-9-41-41z"/>
<path transform="translate(1987,1027)" d="m0 0h2v71l-2 5-8 9-32 40-9 11-6 8-4 1 6-54 4-38 3-7 43-43z"/>
<path transform="translate(1927,826)" d="m0 0 5 5 26 32 11 14 11 13 9 12v71l-7-6-45-45-4-34-6-57z"/>
<path transform="translate(11,1026)" d="m0 0 7 6 44 44 2 7 8 79v10l-5-5-18-22-13-16-11-14-14-17z"/>
<path transform="translate(70,826)" d="m0 0h1l-1 17-9 80-7 8-42 42h-1v-74l11-14 11-13 10-13 13-16 9-11z"/>
</svg>
